<?xml version="1.0" encoding="UTF-8" standalone="no"?>
<!-- Created with Inkscape (http://www.inkscape.org/) -->

<svg
   width="12.699996mm"
   height="13.9413mm"
   viewBox="0 0 12.699996 13.9413"
   version="1.1"
   id="svg1"
   xml:space="preserve"
   sodipodi:docname="company.svg"
   xmlns:inkscape="http://www.inkscape.org/namespaces/inkscape"
   xmlns:sodipodi="http://sodipodi.sourceforge.net/DTD/sodipodi-0.dtd"
   xmlns="http://www.w3.org/2000/svg"
   xmlns:svg="http://www.w3.org/2000/svg"><sodipodi:namedview
     id="namedview1"
     pagecolor="#ffffff"
     bordercolor="#111111"
     borderopacity="1"
     inkscape:showpageshadow="0"
     inkscape:pageopacity="0"
     inkscape:pagecheckerboard="1"
     inkscape:deskcolor="#d1d1d1"
     inkscape:document-units="mm" /><defs
     id="defs1" /><g
     inkscape:label="Layer 1"
     inkscape:groupmode="layer"
     id="layer1"
     transform="translate(-27.23913,-144.4952)"><g
       id="g2"
       transform="matrix(0.78230765,0,0,0.78230765,6.0335801,31.455484)"><path
         id="path2-3-8"
         style="fill:none;stroke:#000000;stroke-width:1.41111;stroke-dasharray:none;stroke-opacity:1;paint-order:markers stroke fill"
         d="m 36.074375,158.31995 c 1.112977,0 2.225954,0 3.338931,0 m -8.37978,0 c 1.112977,0 2.225954,0 3.338931,0 m 1.701918,-3.29421 c 1.112977,0 2.225954,0 3.338931,0 m -8.37978,0 c 1.112977,0 2.225954,0 3.338931,0 m 1.701918,-3.29422 c 1.112977,0 2.225954,0 3.338931,0 m -8.37978,0 c 1.112977,0 2.225954,0 3.338931,0 m 1.701918,-3.29421 c 1.112977,0 2.225954,0 3.338931,0 m -8.37978,0 c 1.112977,0 2.225954,0 3.338931,0 m -5.693184,-3.17246 c 4.362762,0 8.725523,0 13.088285,0 0,5.44852 0,10.89703 0,16.34555 -4.362762,0 -8.725523,0 -13.088285,0 0,-5.44852 0,-10.89703 0,-16.34555 z m -1.570246,0.009 c 5.409593,-0.0197 10.819186,-0.0394 16.228779,-0.0591" /></g></g></svg>
